<?xml version="1.0" encoding="utf-8"?>
<!-- Generator: Adobe Adobe Illustrator 24.2.0, SVG Export Plug-In . SVG Version: 6.00 Build 0)  -->
<svg version="1.1" id="Layer_1" xmlns="http://www.w3.org/2000/svg" xmlns:xlink="http://www.w3.org/1999/xlink" x="0px" y="0px"
	 width="187px" height="76.9px" viewBox="0 0 187 76.9" style="enable-background:new 0 0 187 76.9;" xml:space="preserve">
<style type="text/css">
	.st0{fill:#FFE3E3;}
	.st1{enable-background:new    ;}
	.st2{fill:#00365A;}
	.st3{fill:#FFFFFF;}
	.st4{fill:#116CA8;}
	.st5{fill:#CCCCCC;}
</style>
<g id="Group_25" transform="translate(-1519 -157)">
	<path id="Rectangle_15" class="st0" d="M1526,157h173c3.9,0,7,3.1,7,7v62.9c0,3.9-3.1,7-7,7h-173c-3.9,0-7-3.1-7-7V164
		C1519,160.1,1522.1,157,1526,157z"/>
	<g class="st1">
		<path class="st2" d="M1592.5,188.3h-7.6l-1.2,3.6h-5.2l7.4-20.4h5.7l7.4,20.4h-5.2L1592.5,188.3z M1588.7,177l-2.5,7.5h5
			L1588.7,177z"/>
		<path class="st2" d="M1609.5,171.6c5,0,7.5,2.9,7.5,6.4c0,2.6-1.4,5-4.5,5.9l4.7,8.1h-5.6l-4.2-7.7h-1.2v7.7h-5v-20.4H1609.5z
			 M1609.2,175.7h-3.1v5h3.1c1.9,0,2.7-1,2.7-2.6C1611.9,176.7,1611.1,175.7,1609.2,175.7z"/>
		<path class="st2" d="M1619,171.6h15.8v4h-5.4v16.4h-5v-16.4h-5.4V171.6z"/>
		<path class="st2" d="M1637.2,171.6h5v20.4h-5V171.6z"/>
		<path class="st2" d="M1655.2,171.3c4.8,0,8.5,2.7,9.7,7.1h-5.5c-0.8-1.7-2.4-2.6-4.3-2.6c-3,0-5.1,2.3-5.1,5.9
			c0,3.6,2.1,5.9,5.1,5.9c1.9,0,3.4-0.9,4.3-2.6h5.5c-1.2,4.4-4.8,7.1-9.7,7.1c-6,0-10.2-4.3-10.2-10.4
			C1644.9,175.6,1649.2,171.3,1655.2,171.3z"/>
		<path class="st2" d="M1672.8,171.6v16.5h6.5v3.8h-11.5v-20.4H1672.8z"/>
		<path class="st2" d="M1694.2,175.5h-7.5v4.1h6.6v3.8h-6.6v4.5h7.5v4h-12.5v-20.4h12.5V175.5z"/>
	</g>
	<g class="st1">
		<path class="st2" d="M1591.7,199.9h-7.5v4.1h6.6v3.8h-6.6v4.5h7.5v4h-12.5v-20.4h12.5V199.9z"/>
		<path class="st2" d="M1608.8,195.9h5.3l-7.2,20.4h-6.2l-7.2-20.4h5.3l5,15.4L1608.8,195.9z"/>
		<path class="st2" d="M1628.8,212.7h-7.6l-1.2,3.6h-5.2l7.4-20.4h5.7l7.4,20.4h-5.2L1628.8,212.7z M1625,201.4l-2.5,7.5h5
			L1625,201.4z"/>
		<path class="st2" d="M1642.5,195.9v16.5h6.5v3.8h-11.5v-20.4H1642.5z"/>
	</g>
	<path id="Path_95" class="st3" d="M1532.3,166.2c-1.8,0-3.3,1.7-3.3,3.9v50.2c0,2.1,1.5,3.9,3.3,3.9h36.8c1.8,0,3.3-1.7,3.3-3.9
		v-40.8c0-8.1-3.4-13.3-11.1-13.3H1532.3z"/>
	<path id="Path_96" class="st4" d="M1562.2,181.2h-13.8c-0.5,0-0.9-0.4-0.9-0.9s0.4-0.9,0.9-0.9h13.8c0.5,0,0.9,0.4,0.9,0.9
		S1562.7,181.2,1562.2,181.2z"/>
	<path id="Path_97" class="st4" d="M1564.6,184.3h-16.2c-0.5,0-0.9-0.4-0.9-0.9s0.4-0.9,0.9-0.9h16.2c0.5,0,0.9,0.4,0.9,0.9
		S1565.1,184.3,1564.6,184.3z"/>
	<path id="Path_98" class="st4" d="M1563.8,193.5h-15.4c-0.5,0-0.9,0.4-0.9,0.9s0.4,0.9,0.9,0.9h15.4c0.5,0,0.9-0.4,0.9-0.9
		S1564.3,193.5,1563.8,193.5L1563.8,193.5z"/>
	<path id="Path_99" class="st4" d="M1566.1,196.6h-17.8c-0.5,0-0.9,0.4-0.9,0.9s0.4,0.9,0.9,0.9h17.8c0.5,0,0.9-0.4,0.9-0.9
		S1566.7,196.6,1566.1,196.6z"/>
	<path id="Path_100" class="st5" d="M1561.3,209.5h-13c-0.5,0-0.9-0.4-0.9-0.9s0.4-0.9,0.9-0.9h13c0.5,0,0.9,0.4,0.9,0.9
		S1561.8,209.5,1561.3,209.5z"/>
	<path id="Path_101" class="st5" d="M1564.2,212.7h-15.8c-0.5,0-0.9-0.4-0.9-0.9s0.4-0.9,0.9-0.9h15.8c0.5,0,0.9,0.4,0.9,0.9
		S1564.7,212.7,1564.2,212.7z"/>
	<circle id="Ellipse_44" class="st4" cx="1540" cy="181.8" r="3.3"/>
	<path id="Path_395" class="st3" d="M1539.7,183.1c-0.1,0-0.1,0-0.2-0.1l0,0l-0.8-0.6c-0.2-0.1-0.2-0.3-0.1-0.5
		c0.1-0.2,0.3-0.2,0.5-0.1l0.5,0.4l1.2-1.6c0.1-0.2,0.3-0.2,0.5-0.1c0,0,0,0,0,0l0,0l0,0l0,0c0.2,0.1,0.2,0.3,0.1,0.5l-1.4,1.8
		C1539.9,183,1539.8,183.1,1539.7,183.1L1539.7,183.1z"/>
	<path id="Path_102" class="st4" d="M1543.7,196c0,1.8-1.5,3.3-3.3,3.3c0,0-0.1,0-0.1,0c-1.8,0-3.3-1.6-3.2-3.4s1.6-3.3,3.4-3.2
		C1542.2,192.7,1543.7,194.2,1543.7,196L1543.7,196z"/>
	<circle id="Ellipse_44-2" class="st5" cx="1540" cy="210.1" r="3.3"/>
	<g id="Group_23" transform="matrix(0.914, 0.407, -0.407, 0.914, 1854.315, 464.803)">
		<path id="Path_107" class="st2" d="M-357.4-108.3c-0.7,1.2-2.2,1.5-3.4,0.8l-14.2-9.2c-1.2-0.7-1.5-2.2-0.8-3.4
			c0.7-1.2,2.2-1.5,3.4-0.8l14.2,9.2C-357-111-356.6-109.5-357.4-108.3L-357.4-108.3z"/>
		<path id="Path_108" class="st2" d="M-371.6-117.6c-5.7,9.3-17.8,12.2-27.1,6.6s-12.2-17.8-6.6-27.1c5.7-9.3,17.8-12.2,27.1-6.6
			C-368.8-139-365.9-126.9-371.6-117.6C-371.6-117.6-371.6-117.6-371.6-117.6z M-401.1-135.5c-4.3,7-2.1,16.1,4.9,20.3
			c7,4.3,16.1,2.1,20.3-4.9c4.3-7,2.1-16.1-4.9-20.3c0,0,0,0,0,0C-387.7-144.7-396.8-142.5-401.1-135.5z"/>
	</g>
	<path id="Path_395-2" class="st3" d="M1539.7,197.6c-0.1,0-0.1,0-0.2-0.1l0,0l-0.8-0.6c-0.2-0.1-0.2-0.3-0.1-0.5
		c0.1-0.2,0.3-0.2,0.5-0.1l0.5,0.4l1.2-1.6c0.1-0.2,0.3-0.2,0.5-0.1c0,0,0,0,0,0l0,0l0,0l0,0c0.2,0.1,0.2,0.3,0.1,0.5l-1.4,1.8
		C1539.9,197.5,1539.8,197.6,1539.7,197.6L1539.7,197.6z"/>
</g>
</svg>
